. 
 
http://www.torrenting.com          :     Once & For all ;)


               www . Torrenting . Com 

(((((((((((((= Enjoy No RAR releases =))))))))))))))))))))


...................................NFO:....................................

.[img]http://i.imgur.com/EE7CR.jpg[/img]


[color=green][size=3]General Info[/size][/color]
ENCODER     : Kobe
Source Video: BD Disk
Source Audio: BD Disk 
Channel     : 6 channels 
IMDB        : http://www.imdb.com/title/tt1568911/
subs        : none



[color=green][size=3]Video[/size][/color]
ID                                       : 0
Format                                   : MPEG-4 Visual
Format profile                           : Advanced Simple@L5
Format settings, BVOP                    : No
Format settings, QPel                    : No
Format settings, GMC                     : No warppoints
Format settings, Matrix                  : Default (H.263)
Codec ID                                 : XVID
Codec ID/Hint                            : XviD
Duration                                 : 2h 26mn
Bit rate                                 : 2 298 Kbps
Width                                    : 720 pixels
Height                                   : 304 pixels
Display aspect ratio                     : 2.35:1
Frame rate                               : 23.976 fps
Color space                              : YUV
Chroma subsampling                       : 4:2:0
Bit depth                                : 8 bits
Scan type                                : Progressive
Compression mode                         : Lossy
Bits/(Pixel*Frame)                       : 0.438
Stream size                              : 2.35 GiB (78%)
Writing library                          : XviD 1.2.1 (UTC 2008-12-04)

[color=green][size=3]Audio[/size][/color]
ID                                       : 1
Format                                   : AC-3
Format/Info                              : Audio Coding 3
Mode extension                           : CM (complete main)
Codec ID                                 : 2000
Duration                                 : 2h 26mn
Bit rate mode                            : Constant
Bit rate                                 : 640 Kbps
Channel(s)                               : 6 channels
Channel positions                        : Front: L C R, Side: L R, LFE
Sampling rate                            : 48.0 KHz
Bit depth                                : 16 bits
Compression mode                         : Lossy
Stream size                              : 671 MiB (22%)
Alignment                                : Split accross interleaves
Interleave, duration                     : 42 ms (1.00 video frame)
Interleave, preload duration             : 500 ms



[color=red][size=3]NOTE:[/size][/color]
Straight up encode from the Bd disk
No filters added, as not needed.
Came out really good! 

 

[color=Green][size=3]Greetz[/size][/color]
unevano,Mr.hive :rock: R3dRuM,rfcgazza,Killerhz,cooperman, Toffee :rock:, KoDeKinG :P 

[img]http://i.imgur.com/Oj7id.png[/img]
[img]http://i.imgur.com/uBVw7.png[/img]
[img]http://i.imgur.com/G9EGX.png[/img]



[img]http://i.imgur.com/wrJ5s.jpg[/img]